<svg width="26" height="26" viewBox="0 0 26 26" fill="none" xmlns="http://www.w3.org/2000/svg">
<path fill-rule="evenodd" clip-rule="evenodd" d="M0.292893 0.292893C0.683417 -0.0976311 1.31658 -0.0976311 1.70711 0.292893L13 11.5858L24.2929 0.292893C24.6834 -0.0976311 25.3166 -0.0976311 25.7071 0.292893C26.0976 0.683417 26.0976 1.31658 25.7071 1.70711L14.4142 13L25.7071 24.2929C26.0976 24.6834 26.0976 25.3166 25.7071 25.7071C25.3166 26.0976 24.6834 26.0976 24.2929 25.7071L13 14.4142L1.70711 25.7071C1.31658 26.0976 0.683417 26.0976 0.292893 25.7071C-0.0976311 25.3166 -0.0976311 24.6834 0.292893 24.2929L11.5858 13L0.292893 1.70711C-0.0976311 1.31658 -0.0976311 0.683417 0.292893 0.292893Z" fill="#354052"/>
</svg>
