<?xml version="1.0" standalone="no"?>
<!DOCTYPE svg PUBLIC "-//W3C//DTD SVG 20010904//EN"
 "http://www.w3.org/TR/2001/REC-SVG-20010904/DTD/svg10.dtd">
<svg version="1.0" xmlns="http://www.w3.org/2000/svg"
 width="1080.000000pt" height="1080.000000pt" viewBox="0 0 1080.000000 1080.000000"
 preserveAspectRatio="xMidYMid meet">
<metadata>
Created by potrace 1.14, written by Peter Selinger 2001-2017
</metadata>
<g transform="translate(0.000000,1080.000000) scale(0.100000,-0.100000)"
fill="#000000" stroke="none">
<path d="M0 5400 l0 -5400 5400 0 5400 0 0 5400 0 5400 -5400 0 -5400 0 0
-5400z m5370 3329 c418 -57 837 -333 1067 -704 38 -61 112 -207 123 -244 5
-14 18 -51 29 -81 17 -45 71 -260 71 -284 0 -10 -24 -7 -81 10 -136 40 -212
70 -307 119 -277 144 -498 367 -638 647 -24 48 -46 88 -47 88 -2 0 0 -35 5
-77 25 -256 131 -519 297 -738 103 -136 289 -300 440 -389 75 -44 233 -112
295 -127 136 -33 476 36 679 138 217 109 426 291 560 487 89 132 192 370 222
519 5 25 9 27 50 27 25 0 45 -3 45 -7 0 -24 -55 -216 -77 -272 -81 -206 -209
-401 -363 -551 -58 -57 -193 -170 -203 -170 -3 0 -29 -16 -58 -36 -131 -88
-336 -169 -514 -204 -883 -170 -1710 446 -1816 1353 -17 145 -2 420 26 505 5
14 32 13 195 -9z m3751 -643 c53 -36 72 -82 67 -163 -7 -103 -68 -163 -167
-163 -93 0 -151 51 -166 145 -24 161 134 268 266 181z m-315 -704 c13 -7 3
-14 -45 -30 l-61 -21 0 44 0 43 45 -14 c25 -7 52 -17 61 -22z m384 -7 l0 -35
-165 0 -165 0 0 35 0 35 165 0 165 0 0 -35z m-4793 -1 c269 -28 467 -203 546
-484 21 -74 22 -88 25 -1152 l3 -1078 -211 0 -210 0 0 198 0 197 -20 -44 c-80
-176 -252 -315 -455 -367 -97 -25 -353 -26 -441 -2 -199 55 -317 167 -353 336
-32 152 7 300 105 397 90 88 202 128 594 209 302 63 356 82 420 146 93 93 129
247 150 645 14 273 13 539 -4 600 -44 166 -162 268 -343 295 -86 13 -217 -5
-313 -44 -128 -52 -144 -68 -694 -670 -66 -72 -142 -156 -170 -186 -28 -30
-114 -125 -191 -210 -77 -85 -162 -179 -190 -208 -27 -30 -53 -59 -57 -65 -3
-7 66 -131 154 -277 89 -146 232 -382 319 -525 249 -410 252 -416 242 -426 -5
-5 -120 -8 -279 -7 l-269 3 -30 47 c-16 26 -93 149 -170 274 -77 125 -179 290
-227 367 -49 76 -88 143 -88 148 0 5 -43 9 -95 9 l-95 0 -2 -422 -3 -423 -242
-3 -243 -2 0 1265 0 1265 245 0 245 0 0 -800 0 -800 88 0 88 0 185 208 c101
114 198 223 215 242 17 19 107 121 200 225 139 157 275 310 354 395 8 9 33 37
55 61 22 24 81 89 130 144 50 55 108 120 130 145 21 25 82 88 135 140 77 77
112 104 185 142 102 53 216 85 337 97 81 8 127 7 245 -5z m1038 -506 c249
-198 552 -340 851 -398 60 -11 171 -26 247 -32 l137 -11 0 -35 0 -35 -122 7
c-130 6 -229 21 -372 55 -48 12 -89 21 -92 21 -2 0 -4 -400 -4 -890 l0 -890
-250 0 -250 0 0 1004 0 1005 -67 47 c-103 73 -159 120 -265 223 l-98 95 0 54
0 54 108 -109 c59 -60 139 -134 177 -165z m3753 60 c-2 -27 -8 -34 -33 -39
-16 -4 -24 -7 -17 -8 23 -2 52 -64 52 -112 0 -89 -67 -148 -170 -148 -77 -1
-128 29 -154 90 -23 57 -16 105 20 149 l26 30 -96 0 -96 0 0 35 0 35 236 0
235 0 -3 -32z m-818 -1383 l0 -885 -250 0 -250 0 0 380 0 380 -139 0 -140 0
-19 -27 c-10 -16 -72 -116 -137 -223 -65 -107 -160 -266 -213 -352 l-95 -158
-283 0 c-156 0 -284 4 -284 8 0 5 29 53 65 108 36 54 72 113 81 129 10 17 36
59 59 95 23 36 102 160 175 275 73 116 139 219 147 231 13 20 9 23 -62 58
-182 90 -277 240 -262 415 17 198 150 336 393 406 49 14 116 29 149 34 33 5
286 9 563 10 l502 1 0 -885z m820 690 c0 -33 -2 -35 -32 -35 -27 0 -29 -2 -16
-12 49 -40 63 -124 31 -179 -26 -44 -77 -59 -203 -59 l-110 0 0 35 0 35 108 1
c59 0 123 5 142 12 69 24 78 96 17 141 -24 18 -46 22 -148 25 l-119 3 0 34 0
34 165 0 165 0 0 -35z m-310 -675 l0 -60 123 0 c151 0 171 9 165 76 -3 44 5
58 16 28 3 -9 6 -40 6 -70 0 -45 -4 -59 -25 -79 -23 -24 -29 -25 -155 -25
l-130 0 0 -35 c0 -44 -18 -46 -22 -2 -3 29 -6 32 -40 35 -36 3 -38 5 -38 38 0
33 1 34 40 34 l40 0 0 60 c0 33 4 60 10 60 6 0 10 -27 10 -60z m268 -513 c43
-34 58 -146 28 -209 -15 -32 -61 -68 -85 -68 -22 0 -10 16 19 27 22 8 36 25
51 58 24 53 20 99 -10 136 -16 20 -22 22 -43 12 -19 -8 -30 -30 -51 -95 -31
-98 -57 -128 -108 -128 -81 0 -123 110 -80 206 18 39 72 76 88 61 3 -4 -6 -11
-21 -16 -53 -21 -83 -110 -55 -164 35 -65 77 -44 104 51 8 31 22 72 30 90 24
52 91 71 133 39z m-6269 -487 c239 -67 413 -251 495 -526 36 -120 49 -222 48
-379 -2 -307 -83 -542 -247 -710 -107 -109 -234 -174 -386 -196 -298 -43 -567
85 -695 331 l-29 55 -5 -550 -5 -550 -247 -3 -248 -2 0 1260 0 1260 250 0 250
0 2 -177 3 -178 29 55 c94 180 258 296 471 331 76 12 231 2 314 -21z m3052
-475 c131 -258 260 -524 288 -590 54 -133 121 -326 121 -352 0 -61 61 116 129
372 28 105 73 276 101 380 27 105 77 296 112 425 l63 235 38 3 c44 4 44 3 18
-93 -11 -38 -65 -239 -121 -445 -56 -206 -117 -431 -135 -500 -65 -243 -83
-305 -94 -335 -42 -106 -52 -173 -61 -390 -9 -253 -23 -332 -80 -450 -85 -175
-226 -277 -422 -304 -249 -35 -481 78 -583 284 -50 99 -65 164 -65 283 l0 103
33 -3 32 -3 6 -110 c13 -219 113 -374 289 -446 75 -31 220 -33 300 -4 78 28
170 120 193 194 35 110 17 244 -61 441 -36 92 -478 985 -585 1182 -44 81 -297
585 -297 592 0 3 122 5 271 4 l272 -3 238 -470z m1579 -465 l0 -930 185 0 185
0 0 930 0 930 250 0 250 0 0 -930 0 -930 185 0 185 0 0 930 0 930 245 0 245 0
0 -970 0 -970 -1115 0 -1115 0 0 970 0 970 250 0 250 0 0 -930z m-2900 775
c250 -65 434 -238 510 -480 l25 -80 3 -612 3 -613 -241 0 -240 0 0 198 -1 197
-34 -65 c-120 -231 -323 -351 -620 -366 -346 -18 -526 120 -542 416 -13 226
63 368 241 454 111 54 193 72 446 102 230 26 368 73 443 150 57 59 71 97 72
194 1 247 -149 403 -400 417 -135 8 -249 -26 -361 -108 -105 -77 -197 -220
-233 -361 -19 -73 -19 -73 -55 -76 -34 -3 -36 -1 -32 20 3 13 10 48 16 78 7
30 34 101 61 157 99 206 280 340 524 388 94 19 327 13 415 -10z m4490 -2070
c0 -38 6 -41 85 -48 27 -3 20 -4 -22 -5 l-63 -2 0 -120 c0 -70 5 -130 12 -145
13 -28 45 -40 83 -31 14 4 25 2 25 -3 0 -13 -81 -24 -118 -16 -59 12 -67 33
-70 181 l-4 134 -36 0 c-28 0 -33 3 -22 10 8 5 25 10 38 10 19 0 22 5 22 35 0
33 2 35 35 35 33 0 35 -2 35 -35z m-1141 -49 c53 -28 65 -60 69 -188 4 -97 7
-118 21 -121 9 -3 -10 -5 -41 -6 -56 -1 -58 0 -58 25 l0 26 -30 -26 c-78 -65
-210 -33 -210 51 0 39 49 80 106 88 122 17 154 38 135 88 -13 34 -49 57 -89
57 -25 0 -43 -9 -68 -34 -19 -19 -34 -41 -34 -50 0 -9 -5 -16 -11 -16 -12 0
-3 35 18 68 30 48 134 68 192 38z m509 -18 l3 -28 22 26 c27 30 100 44 136 24
24 -12 51 -66 51 -100 0 -16 -6 -20 -34 -20 -32 0 -35 3 -41 39 -8 48 -24 64
-61 59 -53 -6 -69 -45 -72 -179 l-4 -119 -34 0 -34 0 0 166 0 165 33 -3 c27
-2 33 -8 35 -30z"/>
<path d="M8934 8026 c-94 -41 -82 -160 19 -187 53 -14 137 -6 177 18 67 39 59
132 -14 167 -41 20 -139 21 -182 2z"/>
<path d="M4506 5654 c-45 -31 -173 -79 -236 -89 -84 -12 -205 -48 -261 -76
-84 -42 -161 -117 -195 -191 -27 -59 -29 -70 -29 -193 0 -124 2 -133 31 -195
50 -107 120 -152 239 -152 213 0 395 177 465 452 16 66 22 129 27 278 3 105 4
192 2 192 -2 0 -22 -12 -43 -26z"/>
<path d="M8931 6873 c-20 -10 -39 -30 -48 -50 -12 -30 -12 -38 2 -67 21 -44
62 -61 147 -61 52 0 73 5 95 21 58 43 55 110 -6 151 -42 29 -138 31 -190 6z"/>
<path d="M7547 6359 c-179 -42 -287 -205 -287 -434 0 -157 44 -272 134 -351
78 -68 142 -86 324 -92 l152 -4 0 446 0 446 -142 -1 c-79 -1 -160 -5 -181 -10z"/>
<path d="M2446 4459 c-300 -75 -481 -573 -385 -1060 49 -248 161 -424 318
-502 59 -29 74 -32 156 -32 74 0 97 4 133 23 113 60 179 178 220 395 14 75 17
149 17 392 -1 271 -3 310 -23 401 -43 199 -109 312 -214 365 -47 24 -162 34
-222 18z"/>
<path d="M4602 3595 c-61 -38 -117 -57 -252 -85 -202 -43 -280 -91 -338 -210
-26 -53 -27 -62 -27 -215 0 -155 1 -162 29 -223 51 -110 128 -159 236 -149
174 15 329 181 385 412 26 105 47 506 28 504 -5 0 -32 -15 -61 -34z"/>
<path d="M7878 2121 c-62 -13 -88 -36 -88 -79 0 -47 14 -62 60 -62 59 1 100
47 100 114 0 39 -2 40 -72 27z"/>
</g>
</svg>
